<svg xmlns="http://www.w3.org/2000/svg" width="1300" height="1450" viewBox="0 0 1300 1450" role="img" aria-label="SPENDLY — ADD OR IMPORT TRANSACTION">
<defs>
<marker id="arrow" viewBox="0 0 10 10" markerWidth="10" markerHeight="10" refX="9" refY="5" orient="auto" markerUnits="userSpaceOnUse">
<path d="M 0 0 L 10 5 L 0 10 Z" fill="#111111"/>
</marker>
</defs>
<rect width="100%" height="100%" fill="#ffffff"/>
<text x="650.0" y="48.0" font-family="Arial, Helvetica, sans-serif" font-size="31" font-weight="700" text-anchor="middle" fill="#111111">SPENDLY — ADD OR IMPORT TRANSACTION</text>
<text x="650.0" y="82.0" font-family="Arial, Helvetica, sans-serif" font-size="19" font-weight="400" text-anchor="middle" fill="#111111" letter-spacing="1.8">ACTIVITY DIAGRAM</text>
<circle cx="650" cy="112" r="12" fill="#111111"/>
<polyline points="650,124 650,145" fill="none" stroke="#111111" stroke-width="2.2" stroke-linecap="round" stroke-linejoin="round" marker-end="url(#arrow)"/>
<rect x="330" y="145" width="640" height="66" rx="11" ry="11" fill="#ffffff" stroke="#111111" stroke-width="2.3"/>
<text x="650.0" y="184.4" font-family="Arial, Helvetica, sans-serif" font-size="20" font-weight="400" text-anchor="middle" fill="#111111">Select Add Transaction or Import CSV</text>
<polyline points="650,211 650,235" fill="none" stroke="#111111" stroke-width="2.2" stroke-linecap="round" stroke-linejoin="round" marker-end="url(#arrow)"/>
<polygon points="650,235.0 760.0,285 650,335.0 540.0,285" fill="#ffffff" stroke="#111111" stroke-width="2.3"/>
<text x="650" y="290.7" font-family="Arial, Helvetica, sans-serif" font-size="19" font-weight="400" text-anchor="middle" fill="#111111">Entry method?</text>
<polyline points="540,285 320,285 320,375" fill="none" stroke="#111111" stroke-width="2.2" stroke-linecap="round" stroke-linejoin="round" marker-end="url(#arrow)"/>
<text x="430" y="270.0" font-family="Arial, Helvetica, sans-serif" font-size="17" font-weight="400" text-anchor="middle" fill="#111111">[Manual entry]</text>
<rect x="105" y="375" width="430" height="78" rx="11" ry="11" fill="#ffffff" stroke="#111111" stroke-width="2.3"/>
<text x="320.0" y="420.4" font-family="Arial, Helvetica, sans-serif" font-size="20" font-weight="400" text-anchor="middle" fill="#111111">Enter transaction details</text>
<polyline points="760,285 980,285 980,375" fill="none" stroke="#111111" stroke-width="2.2" stroke-linecap="round" stroke-linejoin="round" marker-end="url(#arrow)"/>
<text x="870" y="270.0" font-family="Arial, Helvetica, sans-serif" font-size="17" font-weight="400" text-anchor="middle" fill="#111111">[CSV import]</text>
<rect x="765" y="375" width="430" height="78" rx="11" ry="11" fill="#ffffff" stroke="#111111" stroke-width="2.3"/>
<text x="980.0" y="420.4" font-family="Arial, Helvetica, sans-serif" font-size="20" font-weight="400" text-anchor="middle" fill="#111111">Select and upload CSV file</text>
<polyline points="320,453 320,520 634,520" fill="none" stroke="#111111" stroke-width="2.2" stroke-linecap="round" stroke-linejoin="round" marker-end="url(#arrow)"/>
<polyline points="980,453 980,520 666,520" fill="none" stroke="#111111" stroke-width="2.2" stroke-linecap="round" stroke-linejoin="round" marker-end="url(#arrow)"/>
<polygon points="650,504 666,520 650,536 634,520" fill="#ffffff" stroke="#111111" stroke-width="2.3"/>
<polyline points="650,536 650,570" fill="none" stroke="#111111" stroke-width="2.2" stroke-linecap="round" stroke-linejoin="round" marker-end="url(#arrow)"/>
<rect x="340" y="570" width="620" height="66" rx="11" ry="11" fill="#ffffff" stroke="#111111" stroke-width="2.3"/>
<text x="650.0" y="609.4" font-family="Arial, Helvetica, sans-serif" font-size="20" font-weight="400" text-anchor="middle" fill="#111111">Parse and normalise transaction data</text>
<polyline points="650,636 650,670" fill="none" stroke="#111111" stroke-width="2.2" stroke-linecap="round" stroke-linejoin="round" marker-end="url(#arrow)"/>
<rect x="340" y="670" width="620" height="66" rx="11" ry="11" fill="#ffffff" stroke="#111111" stroke-width="2.3"/>
<text x="650.0" y="709.4" font-family="Arial, Helvetica, sans-serif" font-size="20" font-weight="400" text-anchor="middle" fill="#111111">Validate required fields and data types</text>
<polyline points="650,736 650,770" fill="none" stroke="#111111" stroke-width="2.2" stroke-linecap="round" stroke-linejoin="round" marker-end="url(#arrow)"/>
<polygon points="650,770.0 760.0,820 650,870.0 540.0,820" fill="#ffffff" stroke="#111111" stroke-width="2.3"/>
<text x="650" y="825.7" font-family="Arial, Helvetica, sans-serif" font-size="19" font-weight="400" text-anchor="middle" fill="#111111">Data valid?</text>
<polyline points="760,820 945,820" fill="none" stroke="#111111" stroke-width="2.2" stroke-linecap="round" stroke-linejoin="round" marker-end="url(#arrow)"/>
<text x="850" y="804.0" font-family="Arial, Helvetica, sans-serif" font-size="17" font-weight="400" text-anchor="middle" fill="#111111">[No]</text>
<rect x="945" y="782" width="300" height="76" rx="11" ry="11" fill="#ffffff" stroke="#111111" stroke-width="2.3"/>
<text x="1095.0" y="814.78" font-family="Arial, Helvetica, sans-serif" font-size="18" font-weight="400" text-anchor="middle" fill="#111111">Show validation errors</text>
<text x="1095.0" y="836.74" font-family="Arial, Helvetica, sans-serif" font-size="18" font-weight="400" text-anchor="middle" fill="#111111">and request correction</text>
<polyline points="1095,858 1265,858 1265,178 970,178" fill="none" stroke="#111111" stroke-width="2.2" stroke-linecap="round" stroke-linejoin="round" marker-end="url(#arrow)"/>
<polyline points="650,870 650,910" fill="none" stroke="#111111" stroke-width="2.2" stroke-linecap="round" stroke-linejoin="round" marker-end="url(#arrow)"/>
<text x="690" y="895.0" font-family="Arial, Helvetica, sans-serif" font-size="17" font-weight="400" text-anchor="start" fill="#111111">[Yes]</text>
<rect x="330" y="910" width="640" height="72" rx="11" ry="11" fill="#ffffff" stroke="#111111" stroke-width="2.3"/>
<text x="650.0" y="952.4" font-family="Arial, Helvetica, sans-serif" font-size="20" font-weight="400" text-anchor="middle" fill="#111111">Check duplicates and confirm category</text>
<polyline points="650,982 650,1015" fill="none" stroke="#111111" stroke-width="2.2" stroke-linecap="round" stroke-linejoin="round" marker-end="url(#arrow)"/>
<rect x="355" y="1015" width="590" height="66" rx="11" ry="11" fill="#ffffff" stroke="#111111" stroke-width="2.3"/>
<text x="650.0" y="1054.4" font-family="Arial, Helvetica, sans-serif" font-size="20" font-weight="400" text-anchor="middle" fill="#111111">Save transaction record(s)</text>
<polyline points="650,1081 650,1115" fill="none" stroke="#111111" stroke-width="2.2" stroke-linecap="round" stroke-linejoin="round" marker-end="url(#arrow)"/>
<rect x="320" y="1115" width="660" height="72" rx="11" ry="11" fill="#ffffff" stroke="#111111" stroke-width="2.3"/>
<text x="650.0" y="1157.4" font-family="Arial, Helvetica, sans-serif" font-size="20" font-weight="400" text-anchor="middle" fill="#111111">Update spending summary and budget progress</text>
<polyline points="650,1187 650,1220" fill="none" stroke="#111111" stroke-width="2.2" stroke-linecap="round" stroke-linejoin="round" marker-end="url(#arrow)"/>
<rect x="355" y="1220" width="590" height="66" rx="11" ry="11" fill="#ffffff" stroke="#111111" stroke-width="2.3"/>
<text x="650.0" y="1259.4" font-family="Arial, Helvetica, sans-serif" font-size="20" font-weight="400" text-anchor="middle" fill="#111111">Display confirmation</text>
<polyline points="650,1286 650,1330" fill="none" stroke="#111111" stroke-width="2.2" stroke-linecap="round" stroke-linejoin="round" marker-end="url(#arrow)"/>
<circle cx="650" cy="1350" r="18" fill="#ffffff" stroke="#111111" stroke-width="2.6"/>
<circle cx="650" cy="1350" r="10" fill="#111111"/>
</svg>