<svg xmlns="http://www.w3.org/2000/svg" xmlns:xlink="http://www.w3.org/1999/xlink" width="760" height="1250" viewBox="0 0 760 1250">
<title>09_Wireframe_Add_Transaction</title>
<rect width="100%" height="100%" fill="white"/>
<rect x="20" y="20" width="720" height="1210" rx="0" fill="#ffffff" stroke="#888888" stroke-width="1.4"/>
<rect x="44" y="41" width="99" height="66" rx="0" fill="#ffffff" stroke="#888888" stroke-width="1.4"/>
<polyline points="44,41 143,107" fill="none" stroke="#888888" stroke-width="1"/>
<polyline points="143,41 44,107" fill="none" stroke="#888888" stroke-width="1"/>
<rect x="57" y="61.0" width="73" height="26" rx="0" fill="#ffffff" stroke="none" stroke-width="1.8"/>
<text x="93.5" y="80.22" font-family="Arial, Helvetica, sans-serif" font-size="21" font-weight="400" text-anchor="middle" fill="#111111">LOGO</text>
<text x="167" y="75.6" font-family="Arial, Helvetica, sans-serif" font-size="30" font-weight="400" text-anchor="start" fill="#111111">SPENDLY</text>
<text x="167" y="103.4" font-family="Arial, Helvetica, sans-serif" font-size="20" font-weight="400" text-anchor="start" fill="#111111">Personal Finance Management</text>
<polyline points="20,132 740,132" fill="none" stroke="#888888" stroke-width="1.2"/>
<text x="48" y="188.06" font-family="Arial, Helvetica, sans-serif" font-size="33" font-weight="400" text-anchor="start" fill="#111111">Add Transaction</text>
<polyline points="48,212 712,212" fill="none" stroke="#888888" stroke-width="1.1"/>
<rect x="50" y="247" width="323" height="58" rx="3" fill="#ffffff" stroke="#888888" stroke-width="1.2"/>
<text x="211.5" y="279.91" font-family="Arial, Helvetica, sans-serif" font-size="23" font-weight="400" text-anchor="middle" fill="#111111">Expense</text>
<rect x="388" y="247" width="323" height="58" rx="3" fill="#ffffff" stroke="#888888" stroke-width="1.2"/>
<text x="549.5" y="279.91" font-family="Arial, Helvetica, sans-serif" font-size="23" font-weight="400" text-anchor="middle" fill="#111111">Income</text>
<text x="50" y="365.68" font-family="Arial, Helvetica, sans-serif" font-size="24" font-weight="400" text-anchor="start" fill="#111111">Amount (KES)</text>
<rect x="50" y="386" width="661" height="63" rx="3" fill="#ffffff" stroke="#888888" stroke-width="1.2"/>
<text x="66" y="424.86" font-family="Arial, Helvetica, sans-serif" font-size="23" font-weight="400" text-anchor="start" fill="#666666">Enter amount</text>
<text x="50" y="516.68" font-family="Arial, Helvetica, sans-serif" font-size="24" font-weight="400" text-anchor="start" fill="#111111">Category</text>
<rect x="50" y="537" width="661" height="63" rx="3" fill="#ffffff" stroke="#888888" stroke-width="1.2"/>
<text x="66" y="575.86" font-family="Arial, Helvetica, sans-serif" font-size="23" font-weight="400" text-anchor="start" fill="#666666">e.g. Food, Transport, Salary</text>
<text x="50" y="667.68" font-family="Arial, Helvetica, sans-serif" font-size="24" font-weight="400" text-anchor="start" fill="#111111">Merchant or source (optional)</text>
<rect x="50" y="688" width="661" height="63" rx="3" fill="#ffffff" stroke="#888888" stroke-width="1.2"/>
<text x="66" y="726.86" font-family="Arial, Helvetica, sans-serif" font-size="23" font-weight="400" text-anchor="start" fill="#666666">Enter merchant or source</text>
<rect x="50" y="805" width="25" height="25" rx="0" fill="#ffffff" stroke="#888888" stroke-width="1.2"/>
<text x="92" y="823.68" font-family="Arial, Helvetica, sans-serif" font-size="24" font-weight="400" text-anchor="start" fill="#111111">Recurring transaction</text>
<text x="50" y="899.68" font-family="Arial, Helvetica, sans-serif" font-size="24" font-weight="400" text-anchor="start" fill="#111111">Transaction date</text>
<rect x="50" y="920" width="661" height="63" rx="3" fill="#ffffff" stroke="#888888" stroke-width="1.2"/>
<text x="66" y="958.86" font-family="Arial, Helvetica, sans-serif" font-size="23" font-weight="400" text-anchor="start" fill="#666666">Select date</text>
<polygon points="679,947 690,947 684.5,955" fill="#888888" stroke="#888888" stroke-width="1.8"/>
<rect x="50" y="1075" width="188" height="61" rx="3" fill="#ffffff" stroke="#888888" stroke-width="1.2"/>
<text x="144.0" y="1109.4099999999999" font-family="Arial, Helvetica, sans-serif" font-size="23" font-weight="400" text-anchor="middle" fill="#111111">Back</text>
<rect x="263" y="1075" width="448" height="61" rx="3" fill="#ffffff" stroke="#888888" stroke-width="1.2"/>
<text x="487.0" y="1109.4099999999999" font-family="Arial, Helvetica, sans-serif" font-size="23" font-weight="400" text-anchor="middle" fill="#111111">Save transaction</text>
</svg>