<svg xmlns="http://www.w3.org/2000/svg" xmlns:xlink="http://www.w3.org/1999/xlink" contentStyleType="text/css" height="2234.375px" preserveAspectRatio="none" style="width:4892px;height:2234px;background:#FFFFFF;" version="1.1" viewBox="0 0 4892 2234" width="4892.7083px" zoomAndPan="magnify"><title>Use Case Diagram for Spendly Personal Finance Decision-Support System</title><defs/><g><text fill="#000000" font-family="Arial" font-size="32.0833" font-weight="bold" lengthAdjust="spacing" textLength="1141.0732" x="1859.7759" y="53.0105">Use Case Diagram for Spendly Personal Finance Decision-Support System</text><!--cluster Spendly Personal Finance Decision-Support System--><g id="cluster_Spendly Personal Finance Decision-Support System"><rect fill="#FFFFFF" height="692.0833" rx="5.7292" ry="5.7292" style="stroke:#000000;stroke-width:2.2917;" width="4601.6667" x="277.2917" y="586.8927"/><text fill="#000000" font-family="Arial" font-size="32.0833" font-weight="bold" lengthAdjust="spacing" textLength="798.7152" x="2178.7674" y="621.5698">Spendly Personal Finance Decision-Support System</text></g><g id="elem_Login"><ellipse cx="537.3803" cy="1079.3688" fill="#FFFFFF" rx="171.8595" ry="39.8719" style="stroke:#000000;stroke-width:1.1458;"/><text fill="#000000" font-family="Arial" font-size="32.0833" lengthAdjust="spacing" textLength="246.0923" x="414.3342" y="1086.4329">Register / Sign In</text></g><g id="elem_Transactions"><ellipse cx="1265.3072" cy="1196.9958" fill="#FFFFFF" rx="198.5363" ry="45.2073" style="stroke:#000000;stroke-width:1.1458;"/><text fill="#000000" font-family="Arial" font-size="32.0833" lengthAdjust="spacing" textLength="308.5201" x="1111.0471" y="1204.0599">Manage Transactions</text></g><g id="elem_Import"><ellipse cx="1265.2807" cy="1010.4044" fill="#FFFFFF" rx="227.1557" ry="59.1367" style="stroke:#000000;stroke-width:1.1458;"/><text fill="#000000" font-family="Arial" font-size="32.0833" lengthAdjust="spacing" textLength="283.502" x="1116.6547" y="1000.7029">Import Transactions</text><text fill="#000000" font-family="Arial" font-size="32.0833" lengthAdjust="spacing" textLength="139.0487" x="1188.8814" y="1037.5956">from CSV</text></g><g id="elem_Budgets"><ellipse cx="1877.6993" cy="1195.9534" fill="#FFFFFF" rx="170.4077" ry="39.5815" style="stroke:#000000;stroke-width:1.1458;"/><text fill="#000000" font-family="Arial" font-size="32.0833" lengthAdjust="spacing" textLength="242.5832" x="1756.4077" y="1203.0175">Manage Budgets</text></g><g id="elem_Dashboard"><ellipse cx="2469.5501" cy="1182.1919" fill="#FFFFFF" rx="192.7793" ry="59.0492" style="stroke:#000000;stroke-width:1.1458;"/><text fill="#000000" font-family="Arial" font-size="32.0833" lengthAdjust="spacing" textLength="235.4083" x="2351.8459" y="1170.8096">View Dashboard</text><text fill="#000000" font-family="Arial" font-size="32.0833" lengthAdjust="spacing" textLength="190.8238" x="2374.1382" y="1207.7023">and Analytics</text></g><g id="elem_Insights"><ellipse cx="3056.5357" cy="1127.2406" fill="#FFFFFF" rx="219.4523" ry="59.0979" style="stroke:#000000;stroke-width:1.1458;"/><text fill="#000000" font-family="Arial" font-size="32.0833" lengthAdjust="spacing" textLength="272.8493" x="2913.6201" y="1117.4529">Generate / Refresh</text><text fill="#000000" font-family="Arial" font-size="32.0833" lengthAdjust="spacing" textLength="255.0688" x="2922.5104" y="1154.3456">Spending Insights</text></g><g id="elem_Review"><ellipse cx="3881.4133" cy="1175.717" fill="#FFFFFF" rx="304.1216" ry="66.3243" style="stroke:#000000;stroke-width:1.1458;"/><text fill="#000000" font-family="Arial" font-size="32.0833" lengthAdjust="spacing" textLength="347.6687" x="3707.579" y="1164.3348">Review Forecast, Alerts,</text><text fill="#000000" font-family="Arial" font-size="32.0833" lengthAdjust="spacing" textLength="438.6707" x="3662.078" y="1201.2275">Recommendations and History</text></g><g id="elem_Logout"><ellipse cx="4583.8334" cy="1198.6188" fill="#FFFFFF" rx="115.0834" ry="33.0802" style="stroke:#000000;stroke-width:1.1458;"/><text fill="#000000" font-family="Arial" font-size="32.0833" lengthAdjust="spacing" textLength="124.8399" x="4514.5385" y="1207.3636">Sign Out</text></g><g id="elem_ValidateCSV"><ellipse cx="536.9787" cy="898.0252" fill="#FFFFFF" rx="223.0203" ry="59.0492" style="stroke:#000000;stroke-width:1.1458;"/><text fill="#000000" font-family="Arial" font-size="32.0833" lengthAdjust="spacing" textLength="253.2672" x="410.3451" y="886.6429">Validate CSV and</text><text fill="#000000" font-family="Arial" font-size="32.0833" lengthAdjust="spacing" textLength="278.1757" x="397.8908" y="923.5356">Remove Duplicates</text></g><g id="elem_Forecast"><ellipse cx="3056.7988" cy="868.392" fill="#FFFFFF" rx="242.6322" ry="59.2076" style="stroke:#000000;stroke-width:1.1458;"/><text fill="#000000" font-family="Arial" font-size="32.0833" lengthAdjust="spacing" textLength="304.9013" x="2897.4732" y="858.6905">Calculate Next-7-Day</text><text fill="#000000" font-family="Arial" font-size="32.0833" lengthAdjust="spacing" textLength="269.3089" x="2915.2694" y="895.5832">Spending Forecast</text></g><g id="elem_Detect"><ellipse cx="3881.3208" cy="767.4002" fill="#FFFFFF" rx="181.425" ry="59.0492" style="stroke:#000000;stroke-width:1.1458;"/><text fill="#000000" font-family="Arial" font-size="32.0833" lengthAdjust="spacing" textLength="219.351" x="3771.6453" y="756.0179">Detect Unusual</text><text fill="#000000" font-family="Arial" font-size="32.0833" lengthAdjust="spacing" textLength="135.5865" x="3813.5276" y="792.9106">Spending</text></g><g id="elem_Recommend"><ellipse cx="4583.8324" cy="767.6262" fill="#FFFFFF" rx="259.4574" ry="59.2751" style="stroke:#000000;stroke-width:1.1458;"/><text fill="#000000" font-family="Arial" font-size="32.0833" lengthAdjust="spacing" textLength="328.1649" x="4412.8749" y="757.9246">Generate Personalised</text><text fill="#000000" font-family="Arial" font-size="32.0833" lengthAdjust="spacing" textLength="267.4917" x="4443.2115" y="794.8173">Recommendations</text></g><g id="elem_AdminLogin"><ellipse cx="537.6008" cy="712.517" fill="#FFFFFF" rx="193.8508" ry="44.2702" style="stroke:#000000;stroke-width:1.1458;"/><text fill="#000000" font-family="Arial" font-size="32.0833" lengthAdjust="spacing" textLength="297.7891" x="388.7062" y="719.5811">Administrator Sign In</text></g><g id="elem_Overview"><ellipse cx="1264.7073" cy="726.1502" fill="#FFFFFF" rx="199.0823" ry="59.0492" style="stroke:#000000;stroke-width:1.1458;"/><text fill="#000000" font-family="Arial" font-size="32.0833" lengthAdjust="spacing" textLength="244.3221" x="1142.5462" y="714.7679">View Operational</text><text fill="#000000" font-family="Arial" font-size="32.0833" lengthAdjust="spacing" textLength="133.7067" x="1197.8539" y="751.6606">Overview</text></g><g id="elem_AdminRefresh"><ellipse cx="1878.1624" cy="726.325" fill="#FFFFFF" rx="246.4957" ry="59.2239" style="stroke:#000000;stroke-width:1.1458;"/><text fill="#000000" font-family="Arial" font-size="32.0833" lengthAdjust="spacing" textLength="310.2433" x="1716.1657" y="716.6234">Refresh Administrator</text><text fill="#000000" font-family="Arial" font-size="32.0833" lengthAdjust="spacing" textLength="156.9545" x="1792.8101" y="753.5161">Dashboard</text></g><g id="elem_AdminLogout"><ellipse cx="2468.9672" cy="719.2903" fill="#FFFFFF" rx="204.8005" ry="46.4601" style="stroke:#000000;stroke-width:1.1458;"/><text fill="#000000" font-family="Arial" font-size="32.0833" lengthAdjust="spacing" textLength="322.7445" x="2307.5949" y="726.3544">Administrator Sign Out</text></g><!--entity User--><g id="elem_User"><ellipse cx="91.3265" cy="1564.2885" fill="#F1F1F1" rx="18.3333" ry="18.3333" style="stroke:#000000;stroke-width:1.1458;"/><path d="M91.3265,1582.6219 L91.3265,1644.4969 M61.5348,1600.9552 L121.1182,1600.9552 M91.3265,1644.4969 L61.5348,1678.8719 M91.3265,1644.4969 L121.1182,1678.8719 " fill="none" style="stroke:#000000;stroke-width:1.1458;"/><text fill="#000000" font-family="Arial" font-size="32.0833" lengthAdjust="spacing" textLength="155.153" x="13.75" y="1712.4032">Registered</text><text fill="#000000" font-family="Arial" font-size="32.0833" lengthAdjust="spacing" textLength="67.7384" x="13.75" y="1749.2959">User</text></g><!--entity Admin--><g id="elem_Admin"><ellipse cx="4583.8704" cy="356.5802" fill="#F1F1F1" rx="18.3333" ry="18.3333" style="stroke:#000000;stroke-width:1.1458;"/><path d="M4583.8704,374.9135 L4583.8704,436.7885 M4554.0788,393.2469 L4613.6621,393.2469 M4583.8704,436.7885 L4554.0788,471.1635 M4583.8704,436.7885 L4613.6621,471.1635 " fill="none" style="stroke:#000000;stroke-width:1.1458;"/><text fill="#000000" font-family="Arial" font-size="32.0833" lengthAdjust="spacing" textLength="188.9909" x="4489.375" y="504.6948">Administrator</text></g><!--link Login to Transactions--><!--link Transactions to Budgets--><!--link Budgets to Dashboard--><!--link Dashboard to Insights--><!--link Insights to Review--><!--link Review to Logout--><!--link ValidateCSV to Forecast--><!--link Forecast to Detect--><!--link Detect to Recommend--><!--link AdminLogin to Overview--><!--link Overview to AdminRefresh--><!--link AdminRefresh to AdminLogout--><!--link Login to ValidateCSV--><!--link ValidateCSV to AdminLogin--><!--link User to Login--><g id="link_User_Login"><path d="M126.5458,1544.7177 C169.125,1406.851 238.3333,1182.726 238.3333,1182.726 C238.3333,1182.726 339.8365,1147.4552 426.5761,1117.3198 " fill="none" id="User-to-Login" style="stroke:#000000;stroke-width:2.2917;"/><polygon fill="#000000" points="439.5646,1112.8073,417.0736,1110.9171,428.7409,1116.5677,423.0902,1128.235,439.5646,1112.8073" style="stroke:#000000;stroke-width:2.2917;"/></g><!--link User to Transactions--><g id="link_User_Transactions"><path d="M170.3625,1575.0135 C205.0125,1540.9365 238.3333,1508.1427 238.3333,1508.1427 C238.3333,1508.1427 969.375,1301.8927 969.375,1301.8927 C969.375,1301.8927 1060.5227,1269.143 1144.6957,1238.893 " fill="none" id="User-to-Transactions" style="stroke:#000000;stroke-width:2.2917;"/><polygon fill="#000000" points="1157.6354,1234.2427,1135.1256,1232.5916,1146.8523,1238.1179,1141.326,1249.8446,1157.6354,1234.2427" style="stroke:#000000;stroke-width:2.2917;"/></g><!--link User to Import--><g id="link_User_Import"><path d="M156.8188,1544.6031 C203.4312,1466.251 258.9583,1372.9344 258.9583,1372.9344 C258.9583,1372.9344 843.4387,1162.0917 1116.4908,1063.5959 " fill="none" id="User-to-Import" style="stroke:#000000;stroke-width:2.2917;"/><polygon fill="#000000" points="1129.425,1058.9302,1106.9132,1057.3059,1118.6465,1062.8182,1113.1341,1074.5515,1129.425,1058.9302" style="stroke:#000000;stroke-width:2.2917;"/></g><!--link User to Budgets--><g id="link_User_Budgets"><path d="M169.8125,1635.101 C344.5979,1600.2677 760.8333,1517.3094 760.8333,1517.3094 C760.8333,1517.3094 1474.8114,1311.8604 1754.601,1231.3313 " fill="none" id="User-to-Budgets" style="stroke:#000000;stroke-width:2.2917;"/><polygon fill="#000000" points="1767.8146,1227.5281,1745.4588,1224.4238,1756.8033,1230.6974,1750.5296,1242.0419,1767.8146,1227.5281" style="stroke:#000000;stroke-width:2.2917;"/></g><!--link User to Dashboard--><g id="link_User_Dashboard"><path d="M169.7896,1664.0219 C295.9229,1686.9385 535.1042,1730.4344 535.1042,1730.4344 C535.1042,1730.4344 535.1042,1730.4344 1880.3125,1730.4344 C1880.3125,1730.4344 2246.4613,1388.5963 2396.3592,1248.6671 " fill="none" id="User-to-Dashboard" style="stroke:#000000;stroke-width:2.2917;"/><polygon fill="#000000" points="2406.4104,1239.2844,2385.0785,1246.6577,2398.0344,1247.1033,2397.5888,1260.0593,2406.4104,1239.2844" style="stroke:#000000;stroke-width:2.2917;"/></g><!--link User to Insights--><g id="link_User_Insights"><path d="M169.6979,1695.4635 C213.0792,1721.3594 258.9583,1748.7677 258.9583,1748.7677 C258.9583,1748.7677 535.1042,1893.1427 535.1042,1893.1427 C535.1042,1893.1427 535.1042,1893.1427 2471.5625,1893.1427 C2471.5625,1893.1427 2865.0959,1376.6756 3001.6564,1197.4444 " fill="none" id="User-to-Insights" style="stroke:#000000;stroke-width:2.2917;"/><polygon fill="#000000" points="3009.9896,1186.5073,2990.1984,1197.3574,3003.0452,1195.6215,3004.7811,1208.4684,3009.9896,1186.5073" style="stroke:#000000;stroke-width:2.2917;"/></g><!--link User to Review--><g id="link_User_Review"><path d="M160.6,1755.7344 C206.3875,1828.2427 258.9583,1911.476 258.9583,1911.476 C258.9583,1911.476 535.1042,2055.851 535.1042,2055.851 C535.1042,2055.851 535.1042,2055.851 3059.375,2055.851 C3059.375,2055.851 3618.4994,1455.2772 3808.364,1251.3418 " fill="none" id="User-to-Review" style="stroke:#000000;stroke-width:2.2917;"/><polygon fill="#000000" points="3817.7333,1241.2781,3796.9702,1250.1274,3809.9256,1249.6645,3810.3885,1262.6199,3817.7333,1241.2781" style="stroke:#000000;stroke-width:2.2917;"/></g><!--link User to Logout--><g id="link_User_Logout"><path d="M135.1625,1756.124 C184.0438,1881.6844 258.9583,2074.1844 258.9583,2074.1844 C258.9583,2074.1844 535.1042,2218.5594 535.1042,2218.5594 C535.1042,2218.5594 535.1042,2218.5594 3883.2292,2218.5594 C3883.2292,2218.5594 4431.3998,1417.4425 4550.8415,1242.8863 " fill="none" id="User-to-Logout" style="stroke:#000000;stroke-width:2.2917;"/><polygon fill="#000000" points="4558.6063,1231.5385,4539.3939,1243.3836,4552.1356,1240.995,4554.5242,1253.7366,4558.6063,1231.5385" style="stroke:#000000;stroke-width:2.2917;"/></g><!--reverse link ValidateCSV to Import--><g id="link_ValidateCSV_Import"><path d="M745.133,930.4611 C849.3121,946.6403 964.1958,964.4906 1068.6958,980.7156 " fill="none" id="ValidateCSV-backto-Import" style="stroke:#000000;stroke-width:2.2917;stroke-dasharray:7.0,7.0;"/><polygon fill="#000000" points="731.5458,928.351,750.5198,940.5743,742.8684,930.1094,753.3333,922.4581,731.5458,928.351" style="stroke:#000000;stroke-width:2.2917;"/><text fill="#000000" font-family="Arial" font-size="32.0833" lengthAdjust="spacing" textLength="137.3568" x="831.875" y="937.8198">&#171;include&#187;</text></g><!--link Insights to Forecast--><g id="link_Insights_Forecast"><path d="M3057.0833,1067.6615 C3057.0833,1025.8385 3057.0833,984.0156 3057.0833,942.2615 " fill="none" id="Insights-to-Forecast" style="stroke:#000000;stroke-width:2.2917;stroke-dasharray:7.0,7.0;"/><polygon fill="#000000" points="3057.0833,928.5115,3047.9167,949.1365,3057.0833,939.9698,3066.25,949.1365,3057.0833,928.5115" style="stroke:#000000;stroke-width:2.2917;"/><text fill="#000000" font-family="Arial" font-size="32.0833" lengthAdjust="spacing" textLength="137.3568" x="2961.9792" y="1010.0073">&#171;include&#187;</text></g><!--link Insights to Detect--><g id="link_Insights_Detect"><path d="M3147.1917,1073.0698 C3238.675,1016.1677 3368.75,935.226 3368.75,935.226 C3368.75,935.226 3587.1891,863.5429 3738.2329,813.9971 " fill="none" id="Insights-to-Detect" style="stroke:#000000;stroke-width:2.2917;stroke-dasharray:7.0,7.0;"/><polygon fill="#000000" points="3751.2979,809.7115,3728.8432,807.4299,3740.4104,813.2828,3734.5574,824.85,3751.2979,809.7115" style="stroke:#000000;stroke-width:2.2917;"/><text fill="#000000" font-family="Arial" font-size="32.0833" lengthAdjust="spacing" textLength="137.3568" x="3371.0417" y="882.8198">&#171;include&#187;</text></g><!--link Insights to Recommend--><g id="link_Insights_Recommend"><path d="M3236.4292,1093.099 C3553.2979,1031.1552 4184.5833,907.726 4184.5833,907.726 C4184.5833,907.726 4313.2175,862.3618 4427.1821,822.1889 " fill="none" id="Insights-to-Recommend" style="stroke:#000000;stroke-width:2.2917;stroke-dasharray:7.0,7.0;"/><polygon fill="#000000" points="4440.15,817.6177,4417.6507,815.8293,4429.3434,821.4271,4423.7456,833.1198,4440.15,817.6177" style="stroke:#000000;stroke-width:2.2917;"/><text fill="#000000" font-family="Arial" font-size="32.0833" lengthAdjust="spacing" textLength="137.3568" x="3813.3333" y="898.8615">&#171;include&#187;</text></g><!--reverse link AdminLogin to Admin--><g id="link_AdminLogin_Admin"><path d="M601.019,660.8345 C765.5836,521.0429 1262.7083,98.7677 1262.7083,98.7677 C1262.7083,98.7677 1262.7083,98.7677 3883.2292,98.7677 C3883.2292,98.7677 4184.5833,201.8927 4184.5833,201.8927 C4184.5833,201.8927 4371.9729,306.9656 4489.1,372.6219 " fill="none" id="AdminLogin-backto-Admin" style="stroke:#000000;stroke-width:2.2917;"/><polygon fill="#000000" points="590.5396,669.7365,612.1933,663.3699,599.2724,662.3182,600.3241,649.3973,590.5396,669.7365" style="stroke:#000000;stroke-width:2.2917;"/></g><!--reverse link Overview to Admin--><g id="link_Overview_Admin"><path d="M1350.9973,662.6901 C1512.4911,539.1922 1875.7292,261.476 1875.7292,261.476 C1875.7292,261.476 1875.7292,261.476 3883.2292,261.476 C3883.2292,261.476 4299.6021,358.574 4489.1,402.7344 " fill="none" id="Overview-backto-Admin" style="stroke:#000000;stroke-width:2.2917;"/><polygon fill="#000000" points="1340.075,671.0427,1362.0269,665.7954,1349.1769,664.0822,1350.8901,651.2323,1340.075,671.0427" style="stroke:#000000;stroke-width:2.2917;"/></g><!--reverse link AdminRefresh to Admin--><g id="link_AdminRefresh_Admin"><path d="M1996.7359,666.6439 C2165.3339,579.721 2466.9792,424.1844 2466.9792,424.1844 C2466.9792,424.1844 2466.9792,424.1844 3883.2292,424.1844 C3883.2292,424.1844 4299.6021,424.1844 4489.1,424.1844 " fill="none" id="AdminRefresh-backto-Admin" style="stroke:#000000;stroke-width:2.2917;"/><polygon fill="#000000" points="1984.5146,672.9448,2007.0472,671.641,1994.699,667.694,1998.646,655.3459,1984.5146,672.9448" style="stroke:#000000;stroke-width:2.2917;"/></g><!--reverse link AdminLogout to Admin--><g id="link_AdminLogout_Admin"><path d="M2661.1479,694.7229 C3111.2313,635.1854 4255.625,483.7677 4255.625,483.7677 C4255.625,483.7677 4392.4604,458.7198 4488.6646,441.0969 " fill="none" id="AdminLogout-backto-Admin" style="stroke:#000000;stroke-width:2.2917;"/><polygon fill="#000000" points="2647.5167,696.526,2669.1657,702.9088,2658.876,695.0234,2666.7614,684.7338,2647.5167,696.526" style="stroke:#000000;stroke-width:2.2917;"/></g><!--link Recommend to Admin--><!--SRC=[bLLTRzCm57tFhxZgyp9WGa92qwIkrM0IR6XbUw4yUCbjQisn8zjP2OZ_phKJ9qxJTUBDllVSptES2DnOi0eqBxOMSgunirp9n3nnMJ7DIdXasLEXLItpXH9AmsxBBKP-isMvsd5Pm8O94tjA9LMsrQf4iBgEFO9Bj4s5K2dHk4laooiEPsTlOmjkM2tibPBsXb6okUPC7FQl-6-4T-yZvrnhjMixVnGqIkpAhDANIkUeZm1SsiFkUuCPCtWiGu2yiiCEzdAfEwA5oK8SBJQ0NYbNaPyLkBADGD0XAh7SqfrwWGKr0qlE2eVUK8PLXJ8N3Nn3RPHa0gwuP38Z46RSa63ILLrLIbjODSPYcIJCxGvcTrXmCcZCrv8ownamuqhe09Zd9PS4qOoktkijITBt1RF_hJw3Fmb0tIvrw07Um8eN4gwbh_D55LGdmdrbahO2tpMJXlbdO3mmDiJuwzBNZDrhkI6zmsBru2DRn84QbtLUe6tJT-SOzS1n1qjcje-AQTeSapdCQV36ygmDwfrns2UKI7j46lGEDnhDTYtzxjphl9R6lV4sF5p6QtfsPQ-KTWPx0dE1sfgJjIHXgRAaFCmF2QwTpxHIfHkVhOsCS_aztzOsB5hLDXaDo0JFNQUqAPVErIZLCp5QLu9dv6dx33Y2nU4B9h9QkFWR_6NJ3-cIDT6eOGIV8bpY-2LQKXVSozhKJ0oHxMgzy-1UWm2vmNoobcuLdMqqxaZa8n5wpqI9dl_RoXNbhjvQtZwZTalsGU4oPiyJ3gDIQzdhPAZM8L_fBv0N6kmOzAr2-cFBynpbJ_hoo_HY_uN4rmbsa7jtcY1YRVVd2IgIS3XECBqmEstl-uUv8g5DK962md7QSn1D9wrf9v4k1j8dk8ZQS9nWzbYChuUnBzBd__g46Z-pWxi8q4YmVvF4VSaXRJT9bluw4aHlxJw7_Jr8eJSCp0ynWURUqf4Qb_RJTP_Zqxew7Kq47-7ydCjCr3bUN2IzM4u7Pez0EZvV1lJCxc6IYENpDEr-QpsfWsd4tvwvdIso3jKEC_CF]--></g></svg>